<?xml version="1.0" encoding="UTF-8"?>
<!-- Generator: visioncortex VTracer 0.6.3 -->
<svg version="1.1" xmlns="http://www.w3.org/2000/svg" width="1280" height="1280">
<path d="M0 0 C422.4 0 844.8 0 1280 0 C1280 422.4 1280 844.8 1280 1280 C857.6 1280 435.2 1280 0 1280 C0 857.6 0 435.2 0 0 Z " fill="#000002" transform="translate(0,0)"/>
<path d="M0 0 C422.4 0 844.8 0 1280 0 C1280 422.4 1280 844.8 1280 1280 C857.6 1280 435.2 1280 0 1280 C0 857.6 0 435.2 0 0 Z M359.36 81.16 C356.44 82.76 353.5 84.24 350.5 85.69 C324.66 98.21 300.21 114.15 277 131 C276.35 131.47 275.71 131.93 275.04 132.41 C265.84 139.04 256.85 145.91 248 153 C247.02 153.78 246.04 154.57 245.03 155.38 C239.65 159.73 234.44 164.23 229.32 168.89 C227.28 170.75 225.21 172.57 223.12 174.38 C213.84 182.48 204.92 190.91 196.23 199.64 C194.67 201.2 193.12 202.75 191.56 204.3 C186.69 209.17 181.93 214.07 177.45 219.3 C175.4 221.7 173.26 224 171.12 226.31 C166.2 231.71 161.57 237.3 157 243 C156.04 244.19 155.08 245.38 154.12 246.57 C151.06 250.37 148.03 254.18 145 258 C144.56 258.55 144.12 259.11 143.67 259.68 C128.65 278.68 115.43 299.23 103 320 C102.45 320.91 102.45 320.91 101.89 321.83 C86.02 348.01 72.53 375.66 61 404 C60.56 405.08 60.12 406.17 59.66 407.29 C48.24 435.55 39.11 464.37 32 494 C31.76 495 31.51 496 31.26 497.03 C23.29 529.77 18.24 563.39 16 597 C15.91 598.26 15.83 599.53 15.74 600.83 C14.91 613.57 14.76 626.3 14.75 639.06 C14.75 640.17 14.75 641.28 14.75 642.42 C14.83 723.59 31.16 803.13 83.95 925.17 C85.61 928.24 87.15 931.35 88.65 934.49 C97.12 952.08 107.6 969.09 118.71 985.12 C120.19 987.28 121.65 989.45 123.11 991.63 C129.29 1000.82 135.7 1009.71 142.66 1018.33 C144.03 1020.03 145.37 1021.75 146.71 1023.48 C155.35 1034.64 164.5 1045.32 173.99 1055.77 C175.86 1057.84 177.68 1059.95 179.5 1062.06 C182.76 1065.82 186.27 1069.29 189.81 1072.77 C191.83 1074.82 193.7 1076.93 195.56 1079.12 C198.45 1082.5 201.58 1085.35 204.96 1088.22 C207.07 1090.06 209.04 1092 211 1094 C214.84 1097.88 218.86 1101.45 223 1105 C224.09 1105.96 225.19 1106.91 226.28 1107.87 C263.62 1140.57 304.43 1168.28 348 1192 C348.96 1192.52 349.92 1193.05 350.91 1193.59 C425.2 1233.89 510.75 1257.45 595 1263 C596.22 1263.09 597.44 1263.17 598.7 1263.26 C612.19 1264.15 625.67 1264.2 639.19 1264.19 C640.38 1264.19 641.57 1264.19 642.8 1264.19 C661.28 1264.17 679.59 1263.7 698 1262 C699.58 1261.86 701.16 1261.73 702.75 1261.6 C715.4 1260.49 727.9 1258.83 740.44 1256.81 C741.39 1256.66 742.33 1256.51 743.31 1256.35 C759.01 1253.83 774.44 1250.75 789.85 1246.8 C792.74 1246.07 795.63 1245.37 798.54 1244.68 C811.38 1241.58 823.93 1237.57 836.5 1233.5 C837.78 1233.09 837.78 1233.09 839.09 1232.67 C849.91 1229.17 860.48 1225.32 871 1221 C872.6 1220.38 874.21 1219.76 875.82 1219.16 C889.81 1213.81 903.2 1207.29 916.61 1200.67 C919.61 1199.19 922.62 1197.72 925.63 1196.26 C961.09 1178.94 994.81 1156.91 1025.45 1132.05 C1027.41 1130.48 1029.38 1128.92 1031.37 1127.38 C1038.51 1121.84 1045.34 1116.12 1052 1110 C1053.29 1108.87 1054.58 1107.75 1055.88 1106.62 C1065.92 1097.85 1075.5 1088.66 1084.91 1079.22 C1086.82 1077.3 1088.74 1075.39 1090.66 1073.47 C1096.65 1067.49 1102.56 1061.5 1108 1055 C1108.95 1053.9 1109.9 1052.81 1110.85 1051.72 C1118.42 1042.96 1125.78 1034.05 1133 1025 C1133.65 1024.18 1133.65 1024.18 1134.32 1023.35 C1161.35 989.35 1183.48 951.69 1203 913 C1203.46 912.1 1203.91 911.2 1204.38 910.27 C1244.41 830.55 1264.03 739.53 1234.62 444.79 C1224.53 414.59 1212.28 385.45 1198 357 C1197.28 355.55 1197.28 355.55 1196.54 354.08 C1186.57 334.35 1175.52 315.22 1163 297 C1161.73 295.06 1160.46 293.13 1159.19 291.19 C1153.7 282.96 1147.84 274.98 1142 267 C1141.59 266.43 1141.17 265.86 1140.75 265.28 C1130.53 251.3 1119.36 238.06 1108 225 C1107.45 224.36 1106.9 223.73 1106.33 223.07 C1096.66 211.96 1086.46 201.37 1076.06 190.94 C1075.28 190.15 1074.5 189.37 1073.7 188.56 C1069.52 184.39 1065.26 180.4 1060.79 176.55 C1058.37 174.46 1056.03 172.29 1053.69 170.12 C1049.17 166.01 1044.54 162.09 1039.78 158.26 C1037 156 1034.29 153.69 1031.56 151.38 C1001.51 126.32 968.36 105.56 934 87 C933.08 86.5 932.15 86 931.2 85.49 C913.57 75.98 895.42 67.86 877 60 C876.33 59.71 875.66 59.43 874.97 59.13 C854.97 50.61 833.92 43.87 813 38 C811.41 37.55 811.41 37.55 809.78 37.09 C735.52 16.15 658.08 9.33 359.36 81.16 Z " fill="#FCFDFF" transform="translate(0,0)"/>
<path d="M0 0 C0.71 -0 1.42 -0.01 2.15 -0.01 C4.54 -0.03 6.93 -0.03 9.33 -0.04 C11.04 -0.05 12.75 -0.06 14.46 -0.06 C20.08 -0.09 25.7 -0.11 31.33 -0.12 C33.26 -0.12 35.19 -0.13 37.13 -0.14 C45.17 -0.16 53.2 -0.18 61.24 -0.19 C72.78 -0.2 84.31 -0.24 95.85 -0.29 C103.95 -0.33 112.06 -0.35 120.16 -0.36 C125.01 -0.36 129.85 -0.37 134.69 -0.41 C139.25 -0.44 143.8 -0.44 148.36 -0.43 C150.03 -0.43 151.71 -0.44 153.38 -0.46 C155.66 -0.48 157.94 -0.47 160.22 -0.45 C161.5 -0.46 162.78 -0.46 164.09 -0.46 C167.17 0.15 167.17 0.15 169.05 2.57 C169.42 3.42 169.79 4.28 170.17 5.15 C170.46 5.78 170.76 6.41 171.05 7.06 C171.41 7.96 171.41 7.96 171.78 8.89 C172.2 9.93 172.2 9.93 172.62 11 C172.91 11.75 173.21 12.5 173.51 13.27 C173.83 14.06 174.14 14.85 174.47 15.67 C175.14 17.38 175.82 19.08 176.49 20.79 C178.29 25.36 180.11 29.91 181.92 34.47 C182.47 35.85 182.47 35.85 183.03 37.26 C185.91 44.51 188.84 51.75 191.79 58.97 C197.16 72.14 202.46 85.33 207.74 98.53 C208.12 99.48 208.5 100.44 208.89 101.42 C212.03 109.28 215.17 117.14 218.31 125 C220.99 131.72 223.68 138.44 226.36 145.15 C226.95 146.64 226.95 146.64 227.56 148.15 C237.04 171.87 246.59 195.57 256.14 219.27 C264.18 239.22 272.2 259.18 280.17 279.15 C280.53 280.05 280.89 280.95 281.26 281.87 C282.45 284.86 283.65 287.86 284.85 290.86 C289.79 303.24 294.75 315.62 299.8 327.97 C304.82 340.25 309.76 352.57 314.68 364.9 C317.75 372.6 320.83 380.3 323.91 388 C325.61 392.25 327.32 396.51 329.02 400.76 C329.71 402.49 330.4 404.22 331.09 405.95 C332.48 409.42 333.87 412.89 335.26 416.36 C335.6 417.22 335.94 418.07 336.29 418.96 C336.98 420.68 337.67 422.4 338.36 424.12 C340.06 428.37 341.76 432.61 343.46 436.86 C346.39 444.19 349.32 451.52 352.25 458.86 C357.93 473.1 363.66 487.32 369.42 501.53 C375.1 515.54 380.75 529.56 386.36 543.59 C386.69 544.42 387.02 545.24 387.36 546.09 C389.95 552.57 392.53 559.04 395.12 565.52 C397.24 570.84 399.36 576.15 401.49 581.47 C401.78 582.19 402.07 582.91 402.36 583.66 C406.16 593.15 409.99 602.63 413.86 612.09 C417.49 620.97 421.08 629.85 424.61 638.76 C425.35 640.61 426.08 642.46 426.82 644.31 C427.26 645.42 427.7 646.54 428.15 647.69 C428.55 648.67 428.94 649.66 429.34 650.67 C430.17 653.15 430.17 653.15 430.17 656.15 C404.52 656.18 378.87 656.19 353.22 656.21 C341.31 656.21 329.4 656.22 317.49 656.23 C307.12 656.24 296.74 656.25 286.36 656.25 C280.86 656.25 275.37 656.25 269.87 656.26 C264.7 656.27 259.53 656.27 254.36 656.27 C252.46 656.27 250.56 656.27 248.66 656.27 C246.07 656.28 243.48 656.28 240.89 656.27 C240.13 656.28 239.37 656.28 238.59 656.28 C233.4 656.27 233.4 656.27 231.17 655.15 C230.31 653.18 230.31 653.18 229.42 650.55 C229.09 649.56 228.75 648.57 228.41 647.55 C228.05 646.46 227.69 645.37 227.31 644.25 C226.93 643.12 226.55 641.98 226.16 640.82 C225.12 637.74 224.09 634.66 223.06 631.57 C222 628.38 220.92 625.19 219.85 622 C218.33 617.49 216.81 612.98 215.3 608.46 C211.91 598.37 208.5 588.28 205.06 578.21 C204.19 575.64 203.32 573.08 202.45 570.51 C201.92 568.95 201.39 567.39 200.86 565.84 C200.63 565.15 200.4 564.47 200.16 563.77 C198.68 559.44 196.99 555.38 195.17 551.15 C118.61 551.15 42.05 551.15 -36.83 551.15 C-37.82 554.78 -38.81 558.41 -39.83 562.15 C-40.5 564.31 -41.19 566.45 -41.92 568.59 C-42.3 569.72 -42.69 570.86 -43.09 572.03 C-43.49 573.23 -43.9 574.43 -44.33 575.67 C-44.77 576.96 -45.21 578.26 -45.65 579.56 C-46.8 582.97 -47.96 586.38 -49.13 589.78 C-50.04 592.47 -50.95 595.16 -51.86 597.84 C-58.47 617.3 -65.15 636.73 -71.83 656.15 C-135.52 656.15 -199.21 656.15 -264.83 656.15 C-265.83 654.15 -265.83 654.15 -265.19 651.98 C-264.83 651.07 -264.47 650.16 -264.09 649.23 C-263.69 648.2 -263.28 647.17 -262.87 646.11 C-262.19 644.42 -262.19 644.42 -261.5 642.69 C-261.03 641.52 -260.57 640.35 -260.09 639.14 C-258.85 635.98 -257.59 632.84 -256.34 629.69 C-255.11 626.6 -253.88 623.51 -252.66 620.42 C-250.95 616.11 -249.24 611.79 -247.53 607.48 C-243.42 597.14 -239.35 586.79 -235.29 576.43 C-233.26 571.25 -231.22 566.08 -229.17 560.9 C-228.9 560.22 -228.63 559.53 -228.36 558.83 C-227.81 557.46 -227.27 556.09 -226.73 554.72 C-220.47 538.88 -214.23 523.02 -208.01 507.15 C-207.59 506.08 -207.17 505 -206.73 503.89 C-202.2 492.32 -197.67 480.75 -193.15 469.19 C-185.95 450.77 -178.73 432.35 -171.45 413.97 C-165.24 398.27 -159.05 382.56 -152.89 366.84 C-152.47 365.77 -152.05 364.7 -151.62 363.6 C-147.12 352.13 -142.64 340.67 -138.15 329.2 C-136.65 325.35 -135.14 321.5 -133.64 317.65 C-133.27 316.71 -132.9 315.76 -132.52 314.79 C-127.19 301.17 -121.83 287.56 -116.45 273.97 C-110.24 258.27 -104.05 242.56 -97.89 226.84 C-97.47 225.77 -97.05 224.7 -96.62 223.6 C-92.12 212.13 -87.64 200.67 -83.15 189.2 C-81.65 185.35 -80.14 181.5 -78.64 177.65 C-78.27 176.71 -77.9 175.76 -77.52 174.79 C-72.19 161.17 -66.83 147.56 -61.45 133.97 C-55.24 118.27 -49.05 102.56 -42.89 86.84 C-42.26 85.25 -42.26 85.25 -41.63 83.63 C-37.42 72.89 -33.21 62.14 -29.02 51.4 C-27.39 47.21 -25.75 43.02 -24.12 38.83 C-22.99 35.94 -21.86 33.04 -20.74 30.15 C-17.71 22.38 -14.67 14.61 -11.44 6.92 C-10.98 5.82 -10.52 4.72 -10.05 3.59 C-7.8 -0.89 -4.63 0.02 0 0 Z " fill="#FCFDFF" transform="translate(557.8260345458984,310.8460998535156)"/>
<path d="M0 0 C1.36 2.63 2.51 5.23 3.49 8.02 C3.91 9.21 3.91 9.21 4.33 10.42 C4.63 11.28 4.94 12.14 5.25 13.03 C5.57 13.94 5.89 14.86 6.22 15.8 C6.93 17.79 7.63 19.79 8.33 21.78 C10.24 27.23 12.17 32.68 14.09 38.12 C14.49 39.26 14.89 40.4 15.31 41.57 C19.66 53.9 24.08 66.2 28.5 78.5 C34.73 95.84 40.92 113.19 47.06 130.56 C47.42 131.57 47.77 132.57 48.14 133.6 C49.5 137.46 50.87 141.32 52.23 145.18 C55.04 153.12 57.86 161.06 60.69 169 C61.08 170.09 61.47 171.18 61.87 172.31 C64.49 179.64 67.21 186.93 70.04 194.19 C71 197 71 197 71 200 C0.71 200.5 0.71 200.5 -71 201 C-71 195.68 -70.65 193.34 -68.84 188.59 C-68.61 187.98 -68.38 187.37 -68.15 186.75 C-67.42 184.81 -66.68 182.87 -65.94 180.94 C-64.98 178.43 -64.03 175.92 -63.09 173.4 C-62.84 172.75 -62.6 172.09 -62.34 171.42 C-59.97 165.04 -57.84 158.58 -55.7 152.11 C-52.8 143.34 -49.71 134.65 -46.58 125.96 C-44.93 121.37 -43.28 116.78 -41.64 112.19 C-41.32 111.3 -40.99 110.4 -40.66 109.48 C-38.2 102.59 -35.8 95.68 -33.44 88.75 C-29.47 77.15 -25.21 65.67 -20.95 54.19 C-17.2 44.08 -13.55 33.95 -10.21 23.7 C-8.46 18.35 -6.63 13.04 -4.69 7.75 C-4.44 7.07 -4.2 6.4 -3.95 5.7 C-2.24 1.12 -2.24 1.12 0 0 Z " fill="#000002" transform="translate(638,519)"/>
</svg>
